<svg width="80" height="80" viewBox="0 0 80 80" fill="none" xmlns="http://www.w3.org/2000/svg">
<g clip-path="url(#clip0_1_2)">
<path d="M64 0H16C7.16344 0 0 7.16344 0 16V64C0 72.8366 7.16344 80 16 80H64C72.8366 80 80 72.8366 80 64V16C80 7.16344 72.8366 0 64 0Z" fill="url(#paint0_linear_1_2)"/>
<path d="M2.15625 17.5199V14.5199L14.1562 9.23579V12.6875L5.94034 15.9858L6.05114 15.8068V16.233L5.94034 16.054L14.1562 19.3523V22.804L2.15625 17.5199Z" fill="#4CAF50"/>
<path d="M77.1562 68.5199L65.1562 73.804V70.3523L73.3722 67.054L73.2614 67.233V66.8068L73.3722 66.9858L65.1562 63.6875V60.2358L77.1562 65.5199V68.5199Z" fill="#4CAF50"/>
<path d="M22.3665 52V28.7273H27.2869V47.9432H37.2642V52H22.3665ZM40.5227 52V28.7273H49.8409C51.553 28.7273 52.9811 28.9811 54.125 29.4886C55.2689 29.9962 56.1288 30.7008 56.7045 31.6023C57.2803 32.4962 57.5682 33.5265 57.5682 34.6932C57.5682 35.6023 57.3864 36.4015 57.0227 37.0909C56.6591 37.7727 56.1591 38.3333 55.5227 38.7727C54.8939 39.2045 54.1742 39.5114 53.3636 39.6932V39.9205C54.25 39.9583 55.0795 40.2083 55.8523 40.6705C56.6326 41.1326 57.2652 41.7803 57.75 42.6136C58.2348 43.4394 58.4773 44.4242 58.4773 45.5682C58.4773 46.803 58.1705 47.9053 57.5568 48.875C56.9508 49.8371 56.053 50.5985 54.8636 51.1591C53.6742 51.7197 52.2083 52 50.4659 52H40.5227ZM45.4432 47.9773H49.4545C50.8258 47.9773 51.8258 47.7159 52.4545 47.1932C53.0833 46.6629 53.3977 45.9583 53.3977 45.0795C53.3977 44.4356 53.2424 43.8674 52.9318 43.375C52.6212 42.8826 52.178 42.4962 51.6023 42.2159C51.0341 41.9356 50.3561 41.7955 49.5682 41.7955H45.4432V47.9773ZM45.4432 38.4659H49.0909C49.7652 38.4659 50.3636 38.3485 50.8864 38.1136C51.4167 37.8712 51.8333 37.5303 52.1364 37.0909C52.447 36.6515 52.6023 36.125 52.6023 35.5114C52.6023 34.6705 52.303 33.9924 51.7045 33.4773C51.1136 32.9621 50.2727 32.7045 49.1818 32.7045H45.4432V38.4659Z" fill="#E0E0E0"/>
</g>
<defs>
<linearGradient id="paint0_linear_1_2" x1="0" y1="0" x2="80" y2="80" gradientUnits="userSpaceOnUse">
<stop stop-color="#0F2027"/>
<stop offset="1" stop-color="#203A43"/>
</linearGradient>
<clipPath id="clip0_1_2">
<rect width="80" height="80" fill="white"/>
</clipPath>
</defs>
</svg>
